#define Cookie_width 16
#define Cookie_height 16
static char Cookie_bits[] = {
  0xFF, 0xFF, 0xFF, 0xFF, 0xFF, 0xFF, 0x1F, 0xF8, 0x47, 0xE2, 0x07, 0xD3, 
  0x23, 0xA0, 0xB7, 0xDD, 0x03, 0xCC, 0x4F, 0xC2, 0x3F, 0xE5, 0xFF, 0xF9, 
  0xFF, 0xDF, 0xFF, 0xFF, 0xFF, 0xFF, 0xFF, 0xFF, };
